<svg xmlns="http://www.w3.org/2000/svg" width="77.81" height="61" viewBox="0 0 77.81 61">
  <path id="delivery-truck" d="M79.837,36.234,71.5,16.781a2.779,2.779,0,0,0-2.557-1.695H60.607V9.529A2.779,2.779,0,0,0,57.828,6.75H5.029A2.779,2.779,0,0,0,2.25,9.529V56.77a2.779,2.779,0,0,0,2.779,2.779h5.948a11.116,11.116,0,0,0,21.453,0H49.882a11.116,11.116,0,0,0,21.453,0h5.946A2.779,2.779,0,0,0,80.06,56.77V37.318A2.779,2.779,0,0,0,79.837,36.234ZM60.607,20.645h6.5l5.948,13.895H60.607ZM21.7,62.328A5.558,5.558,0,1,1,27.26,56.77,5.558,5.558,0,0,1,21.7,62.328Zm28.179-8.337H32.43a11.116,11.116,0,0,0-21.453,0H7.808V12.308H55.049v34.9a11.116,11.116,0,0,0-5.17,6.781Zm10.725,8.337a5.558,5.558,0,1,1,5.558-5.558A5.558,5.558,0,0,1,60.607,62.328ZM74.5,53.992H71.335a11.116,11.116,0,0,0-10.728-8.337V40.1H74.5Z" transform="translate(-2.25 -6.75)" fill="#fce277"/>
</svg>
