<svg id="email-solid" xmlns="http://www.w3.org/2000/svg" width="35.997" height="27.009" viewBox="0 0 35.997 27.009">
  <path id="Path_471" data-name="Path 471" d="M35.944,6a2.25,2.25,0,0,0-.461,0H3.986a2.25,2.25,0,0,0-.6.09L19.645,22.279Z" transform="translate(-1.748 -5.989)" fill="#58331c"/>
  <path id="Path_472" data-name="Path 472" d="M37.792,7.39,21.413,23.7a2.25,2.25,0,0,1-3.172,0L2.009,7.514a2.25,2.25,0,0,0-.079.562v22.5a2.25,2.25,0,0,0,2.25,2.25h31.5a2.25,2.25,0,0,0,2.25-2.25V8.076a2.25,2.25,0,0,0-.135-.686ZM5.721,30.574H4.157V28.965l8.178-8.11,1.586,1.586Zm29.933,0H34.079l-8.2-8.133,1.586-1.586,8.178,8.11Z" transform="translate(-1.93 -5.815)" fill="#58331c"/>
</svg>
