<svg xmlns="http://www.w3.org/2000/svg" width="98.931" height="90.385" viewBox="0 0 98.931 90.385">
  <g id="first-aid-kit" transform="translate(0 -22.115)">
    <path id="Path_3289" data-name="Path 3289" d="M140.636,221.976h39.6a3.089,3.089,0,0,0,3.085-3.086V189.271a1.449,1.449,0,0,0-2.9,0V218.89a.19.19,0,0,1-.187.187h-39.6a.19.19,0,0,1-.187-.187V171.357a.19.19,0,0,1,.187-.187h39.6a.19.19,0,0,1,.187.187v12.117a1.449,1.449,0,0,0,2.9,0V171.357a3.089,3.089,0,0,0-3.085-3.085h-39.6a3.089,3.089,0,0,0-3.085,3.085V218.89A3.089,3.089,0,0,0,140.636,221.976Z" transform="translate(-110.973 -117.916)" fill="#fce277"/>
    <path id="Path_3290" data-name="Path 3290" d="M196.218,288.66h4.331a3.538,3.538,0,0,0,3.534-3.534V280.56h4.566a3.538,3.538,0,0,0,3.534-3.534v-4.331a3.538,3.538,0,0,0-3.534-3.534h-4.566v-4.566a3.538,3.538,0,0,0-3.534-3.534h-4.331a3.538,3.538,0,0,0-3.534,3.534v4.566h-4.566a3.538,3.538,0,0,0-3.534,3.534v4.331a3.538,3.538,0,0,0,3.534,3.534h4.566v4.566A3.538,3.538,0,0,0,196.218,288.66Zm-8.1-11a.636.636,0,0,1-.636-.636v-4.331a.636.636,0,0,1,.636-.636h6.015a1.449,1.449,0,0,0,1.449-1.449v-6.015a.636.636,0,0,1,.636-.636h4.331a.636.636,0,0,1,.636.636v6.015a1.449,1.449,0,0,0,1.449,1.449h6.015a.636.636,0,0,1,.636.636v4.331a.636.636,0,0,1-.636.636h-6.015a1.449,1.449,0,0,0-1.449,1.449v6.015a.636.636,0,0,1-.636.636h-4.331a.636.636,0,0,1-.636-.636v-6.015a1.449,1.449,0,0,0-1.449-1.449Z" transform="translate(-148.918 -192.776)" fill="#fce277"/>
    <path id="Path_3291" data-name="Path 3291" d="M187.482,212.032v-2.373a1.449,1.449,0,0,0-2.9,0v2.373a1.449,1.449,0,1,0,2.9,0Z" transform="translate(-148.918 -150.137)" fill="#fce277"/>
    <path id="Path_3292" data-name="Path 3292" d="M315.313,209.659a1.449,1.449,0,0,0-2.9,0v2.373a1.449,1.449,0,1,0,2.9,0Z" transform="translate(-252.049 -150.137)" fill="#fce277"/>
    <path id="Path_3293" data-name="Path 3293" d="M236.353,224.507a5.767,5.767,0,0,0,4.349-1.981,1.449,1.449,0,0,0-2.185-1.9,2.866,2.866,0,0,1-4.327,0,1.449,1.449,0,1,0-2.185,1.9A5.768,5.768,0,0,0,236.353,224.507Z" transform="translate(-186.887 -159.75)" fill="#fce277"/>
    <path id="Path_3294" data-name="Path 3294" d="M2.071,100.341a9.91,9.91,0,0,0,9.9,9.9H22.818a11.464,11.464,0,0,0,6.846,2.26h39.6a11.465,11.465,0,0,0,6.846-2.26H86.962a9.91,9.91,0,0,0,9.9-9.9V82.318a5.352,5.352,0,0,0,2.071-4.247V68.849a11.583,11.583,0,0,0-6.41-10.4l-11.767-5.92A11.539,11.539,0,0,0,69.268,41.916h-.249v-.248a19.552,19.552,0,0,0-39.1,0v.248h-.249A11.539,11.539,0,0,0,18.177,52.529L6.41,58.449A11.583,11.583,0,0,0,0,68.849v9.222a5.352,5.352,0,0,0,2.071,4.247Zm91.891,0a7.008,7.008,0,0,1-7,7H78.878a11.525,11.525,0,0,0,1.916-6.367V77.7l10.32,5.192a5.434,5.434,0,0,0,2.848.568v16.884Zm2.071-31.492v9.222a2.5,2.5,0,0,1-3.6,2.238l-.02-.008L80.793,74.453V55.793l10.425,5.245A8.7,8.7,0,0,1,96.033,68.849ZM32.812,41.667a16.654,16.654,0,1,1,33.308,0v.248H59.948v-.248a10.482,10.482,0,1,0-20.964,0v.248H32.812Zm9.071.248v-.248a7.584,7.584,0,1,1,15.167,0v.248Zm-12.218,2.9h39.6a8.637,8.637,0,0,1,8.627,8.627v47.532a8.639,8.639,0,0,1-8.627,8.628h-39.6a8.636,8.636,0,0,1-8.628-8.628V93.536a1.449,1.449,0,1,0-2.9,0v7.438a11.523,11.523,0,0,0,1.916,6.367H11.97a7.009,7.009,0,0,1-7-7V83.456a5.43,5.43,0,0,0,2.848-.568L18.138,77.7V87.739a1.449,1.449,0,0,0,2.9,0v-34.3a8.637,8.637,0,0,1,8.628-8.627ZM2.9,68.849a8.7,8.7,0,0,1,4.815-7.812l10.425-5.245V74.452l-1.031.519L6.515,80.3l-.014.006a2.492,2.492,0,0,1-3.6-2.235Z" fill="#fce277"/>
  </g>
</svg>
