<svg xmlns="http://www.w3.org/2000/svg" width="70.008" height="70" viewBox="0 0 70.008 70">
  <g id="healing" transform="translate(-2.028 -2.029)">
    <path id="Path_3300" data-name="Path 3300" d="M12.065,19.448,3.472,28.041a4.931,4.931,0,0,0,0,6.973L18.291,49.833a4.937,4.937,0,0,0,6.973,0l8.593-8.593-3.484-3.484L21.78,46.349l0,0L6.959,31.53l8.593-8.593Z" transform="translate(0 20.755)" fill="#fce277"/>
    <path id="Path_3301" data-name="Path 3301" d="M49.833,18.288,35.016,3.471a4.937,4.937,0,0,0-6.973,0l-8.6,8.593,3.487,3.487,8.6-8.593L46.349,21.776l-8.593,8.593,3.487,3.487,8.593-8.593a4.931,4.931,0,0,0,0-6.973Z" transform="translate(20.756)" fill="#fce277"/>
    <path id="Path_3302" data-name="Path 3302" d="M16.943,15.891,19.334,13.5l2.391,2.391-2.391,2.391Z" transform="translate(17.771 13.667)" fill="#fce277"/>
    <path id="Path_3303" data-name="Path 3303" d="M16.943,22.709l2.391-2.391,2.391,2.391L19.334,25.1Z" transform="translate(17.771 21.791)" fill="#fce277"/>
    <path id="Path_3304" data-name="Path 3304" d="M20.352,19.3l2.391-2.391L25.134,19.3l-2.391,2.391Z" transform="translate(21.833 17.729)" fill="#fce277"/>
    <path id="Path_3305" data-name="Path 3305" d="M13.534,19.3l2.391-2.391L18.316,19.3l-2.391,2.391Z" transform="translate(13.709 17.729)" fill="#fce277"/>
    <path id="Path_3306" data-name="Path 3306" d="M46.537,68.327a7.394,7.394,0,0,0,10.423-.035L68.292,56.96a7.4,7.4,0,0,0,0-10.46l-1.2-1.2L30.114,8.322,26.452,4.66a7.4,7.4,0,0,0-10.46,0L4.66,15.992a7.4,7.4,0,0,0,0,10.46l4.894,4.894L46.5,68.29c.013.011.024.024.037.035ZM8.147,22.965a2.465,2.465,0,0,1,0-3.487L19.479,8.147a2.465,2.465,0,0,1,3.487,0L32.989,18.17,18.17,32.989ZM21.657,36.476,36.476,21.657,51.3,36.476,36.478,51.3ZM54.78,39.963,64.8,49.987a2.465,2.465,0,0,1,0,3.487L53.471,64.806a2.465,2.465,0,0,1-3.487,0L39.961,54.782Z" transform="translate(0.555 0.553)" fill="#fce277"/>
  </g>
</svg>
