<svg id="Group_1417" data-name="Group 1417" xmlns="http://www.w3.org/2000/svg" width="27.528" height="27.528" viewBox="0 0 27.528 27.528">
  <g id="Icon_feather-instagram" data-name="Icon feather-instagram" transform="translate(0 0)">
    <path id="Path_6" data-name="Path 6" d="M9.882,3H23.646a6.882,6.882,0,0,1,6.882,6.882V23.646a6.882,6.882,0,0,1-6.882,6.882H9.882A6.882,6.882,0,0,1,3,23.646V9.882A6.882,6.882,0,0,1,9.882,3Z" transform="translate(-3 -3)" fill="#58331c"/>
    <path id="Path_7" data-name="Path 7" d="M23.374,16.786A5.685,5.685,0,1,1,18.584,12a5.685,5.685,0,0,1,4.79,4.79Z" transform="translate(-3.937 -3.906)" fill="#58331c" stroke="#fff" stroke-linecap="round" stroke-linejoin="round" stroke-width="2"/>
    <path id="Path_8" data-name="Path 8" d="M14.9,13.149a1.423,1.423,0,1,1-1.2-1.2A1.423,1.423,0,0,1,14.9,13.149Z" transform="translate(7.434 -7.397)" fill="#58331c"/>
  </g>
</svg>
