<svg xmlns="http://www.w3.org/2000/svg" width="118" height="86.53" viewBox="0 0 118 86.53">
  <g id="mask" transform="translate(0 -0.002)">
    <g id="_022---Surgical-Mask" data-name="022---Surgical-Mask" transform="translate(0 0.002)">
      <path id="Shape" d="M17.374,26.845a87.762,87.762,0,0,0,26.157,4,87.762,87.762,0,0,0,26.157-4,1.967,1.967,0,1,0-1.168-3.756,83.6,83.6,0,0,1-49.965,0,1.967,1.967,0,1,0-1.168,3.756Z" transform="translate(15.469 22.23)" fill="#fce277"/>
      <path id="Shape-2" data-name="Shape" d="M17.653,20.912a168.419,168.419,0,0,0,25.87,1.978,168.419,168.419,0,0,0,25.87-1.978,1.967,1.967,0,1,0-.606-3.886,166.126,166.126,0,0,1-50.528,0,1.967,1.967,0,0,0-.606,3.886Z" transform="translate(15.478 16.428)" fill="#fce277"/>
      <path id="Shape-3" data-name="Shape" d="M68.309,30.224a56.31,56.31,0,0,1-49.438,0,1.967,1.967,0,1,0-1.7,3.54,60.18,60.18,0,0,0,52.829,0,1.967,1.967,0,1,0-1.7-3.54Z" transform="translate(15.41 28.969)" fill="#fce277"/>
      <path id="Shape-4" data-name="Shape" d="M110.133,19.665h-10.2A5.9,5.9,0,0,0,94.4,15.732H91.43a24.263,24.263,0,0,1-18.709-9.2,17.684,17.684,0,0,0-27.439,0,24.265,24.265,0,0,1-18.713,9.2H23.6a5.9,5.9,0,0,0-5.538,3.933H7.867A7.867,7.867,0,0,0,0,27.532v9.833c0,10.337,9.255,19.85,20.489,21.4A42.4,42.4,0,0,0,55.757,86.349a28.862,28.862,0,0,0,6.49,0A42.4,42.4,0,0,0,97.511,58.764C108.745,57.215,118,47.7,118,37.365V27.532A7.867,7.867,0,0,0,110.133,19.665Zm-86.533,0h2.97A28.194,28.194,0,0,0,48.335,9.006a13.747,13.747,0,0,1,21.336,0A28.186,28.186,0,0,0,91.43,19.665H94.4a1.967,1.967,0,0,1,1.967,1.967V23.6l-5.9-.01h-.039a31.14,31.14,0,0,1-23.816-12.1,9.812,9.812,0,0,0-15.236.018,31.115,31.115,0,0,1-23.8,12.083h-.045l-5.9.014V21.632A1.967,1.967,0,0,1,23.6,19.665ZM3.933,37.365V27.532A3.933,3.933,0,0,1,7.867,23.6H17.7V43.265A44.523,44.523,0,0,0,19.165,54.52C11.352,52.638,3.933,45.963,3.933,37.365Zm57.9,45.072a25.323,25.323,0,0,1-5.672,0A38.484,38.484,0,0,1,23.836,56.365v-.02a40.317,40.317,0,0,1-2.2-13.08V27.532l5.9-.01A34.843,34.843,0,0,0,54.427,13.987a5.88,5.88,0,0,1,9.135-.016,35.054,35.054,0,0,0,26.859,13.55h.045l5.9.01V43.265a40.317,40.317,0,0,1-2.2,13.076v.02A38.484,38.484,0,0,1,61.836,82.437Zm52.231-45.072c0,8.6-7.418,15.273-15.232,17.159A44.523,44.523,0,0,0,100.3,43.265V23.6h9.833a3.933,3.933,0,0,1,3.933,3.933Z" transform="translate(0 -0.002)" fill="#fce277"/>
    </g>
  </g>
</svg>
