<svg xmlns="http://www.w3.org/2000/svg" width="25.333" height="28.753" viewBox="0 0 25.333 28.753">
  <g id="shopping-bag-solid" transform="translate(-4 -2.22)">
    <path id="Path_2132" data-name="Path 2132" d="M12.81,8.553a4.524,4.524,0,1,1,9.048,0v2.515h1.81V8.553A6.333,6.333,0,1,0,11,8.553v2.515h1.81Z" transform="translate(-0.667)"/>
    <path id="Path_2133" data-name="Path 2133" d="M23,12v2.8a.9.9,0,0,1-1.81,0V12H12.143v2.8a.9.9,0,0,1-1.81,0V12H4V30.1A1.81,1.81,0,0,0,5.81,31.9H27.524a1.81,1.81,0,0,0,1.81-1.81V12Z" transform="translate(0 -0.931)"/>
  </g>
</svg>
